<svg width="50" height="50" viewBox="0 0 50 50" fill="none" xmlns="http://www.w3.org/2000/svg">
<path d="M18.4961 0.998932C-0.414843 6.1046 -6.37104 29.931 7.92384 43.3242C21.8465 56.2733 44.48 49.4658 49.245 30.819C52.5953 17.7958 44.48 4.4767 31.153 0.998932C26.0158 -0.332981 23.5589 -0.332981 18.4961 0.998932ZM27.1326 15.724C29.9618 18.6098 29.8873 21.1256 26.9837 20.3117C26.0903 20.0897 24.6012 19.8677 23.7078 19.8677C22.2932 19.8677 21.9954 19.4237 21.9954 17.6478C21.9954 15.576 21.8465 15.428 19.0173 15.428H16.0392V23.1235V30.893L19.5384 31.115C21.5486 31.263 23.1122 31.7069 23.3355 32.2989C23.5589 33.0388 22.5165 33.1868 18.9428 33.0388L14.1778 32.8169L13.9545 24.0114C13.88 19.1277 13.9545 14.688 14.1034 14.1701C14.4012 13.5041 16.1136 13.2081 19.6129 13.2081C24.3778 13.2081 24.8246 13.3561 27.1326 15.724ZM33.5355 22.8275L37.1092 24.3074L36.737 27.6372C36.2902 31.263 33.3866 35.7767 30.9297 36.5166C28.6961 37.2566 26.1647 35.2587 24.3034 31.4849C21.8465 26.3793 22.1443 24.6034 25.9413 22.9015C29.8873 21.0516 29.4406 21.1256 33.5355 22.8275ZM21.5486 23.1975C21.2508 23.7894 20.283 24.3074 19.3151 24.3074C18.1983 24.3074 17.5282 23.8634 17.5282 23.1975C17.5282 22.4575 18.2727 22.0876 19.7618 22.0876C21.3997 22.0876 21.8465 22.3835 21.5486 23.1975ZM21.1019 26.6753C20.8786 27.1932 20.134 27.6372 19.3895 27.6372C18.645 27.6372 17.9005 27.1932 17.7516 26.6753C17.5282 26.1573 18.1238 25.7873 19.3895 25.7873C20.6552 25.7873 21.2508 26.1573 21.1019 26.6753Z" fill="#2344F1"/>
<path d="M24.2289 17.2779C24.2289 17.8699 24.7501 18.3878 25.3457 18.3878C25.9414 18.3878 26.4625 18.0918 26.4625 17.7219C26.4625 17.3519 25.9414 16.9079 25.3457 16.6119C24.6757 16.3899 24.2289 16.6119 24.2289 17.2779Z" fill="#2344F1"/>
<path d="M30.1851 29.1912C30.1851 34.2228 30.334 34.7408 31.3764 33.8528C32.9399 32.5949 34.6523 29.1912 34.6523 27.3413C34.6523 26.3793 33.7588 25.3434 32.4187 24.6774L30.1851 23.4935V29.1912Z" fill="#2344F1"/>
</svg>
